<?xml version="1.0" standalone="no"?>
<svg viewBox="0 0 200 200" xmlns="http://www.w3.org/2000/svg">
  <path fill="#BAE6FF" d="M29.7,-55.7C29.7,-51.4,14.9,-25.7,18.6,-12.9C22.3,0,44.6,0,58.5,8C72.3,16,77.9,32.1,74,44.8C70.2,57.5,57.1,66.8,43.2,66.1C29.3,65.3,14.7,54.5,0.9,52.9C-12.8,51.2,-25.6,58.8,-38.5,59C-51.3,59.2,-64.3,51.9,-63.2,40.8C-62.2,29.8,-47,14.9,-41.4,3.2C-35.8,-8.4,-39.8,-16.8,-39.8,-26.1C-39.8,-35.3,-35.9,-45.4,-28.6,-45.6C-21.4,-45.7,-10.7,-35.9,2.1,-39.5C14.8,-43.1,29.7,-60.1,29.7,-55.7Z" transform="translate(100 100)" />
</svg>
