<?xml version="1.0" standalone="no"?>
<svg viewBox="0 0 200 200" xmlns="http://www.w3.org/2000/svg">
  <path fill="#BAE6FF" d="M33.5,-58.6C35.2,-57,22.7,-31.5,22.2,-17.7C21.6,-4,33,-2,38.2,3C43.4,8,42.4,15.9,38.7,22.4C35.1,28.9,28.7,33.8,21.8,44C14.9,54.2,7.5,69.6,2.3,65.6C-2.9,61.6,-5.8,38.3,-11.9,27.7C-18,17.1,-27.4,19.2,-34.3,16.7C-41.2,14.2,-45.7,7.1,-40.8,2.8C-35.9,-1.4,-21.7,-2.9,-18.2,-11.2C-14.6,-19.5,-21.7,-34.7,-20.4,-36.6C-19.2,-38.4,-9.6,-27,3.1,-32.4C15.9,-37.8,31.8,-60.2,33.5,-58.6Z" transform="translate(100 100)" />
</svg>
