<?xml version="1.0" standalone="no"?>
<svg viewBox="0 0 200 200" xmlns="http://www.w3.org/2000/svg">
  <path fill="#BAE6FF" d="M39.6,-61.7C45.9,-64.9,42,-43.4,44,-29C46,-14.6,53.9,-7.3,56.1,1.3C58.4,9.9,54.9,19.8,51.6,31.9C48.3,44,45.1,58.4,36.6,57.9C28,57.3,14,42,-0.8,43.4C-15.6,44.7,-31.2,62.9,-38.9,62.9C-46.5,62.9,-46.2,44.7,-53.2,31.2C-60.2,17.7,-74.6,8.8,-78.1,-2C-81.7,-12.9,-74.3,-25.8,-62.4,-30.8C-50.4,-35.7,-33.8,-32.8,-22.7,-26.8C-11.5,-20.9,-5.7,-11.9,5.4,-21.3C16.6,-30.8,33.2,-58.6,39.6,-61.7Z" transform="translate(100 100)" />
</svg>
