<?xml version="1.0" standalone="no"?>
<!DOCTYPE svg PUBLIC "-//W3C//DTD SVG 20010904//EN"
 "http://www.w3.org/TR/2001/REC-SVG-20010904/DTD/svg10.dtd">
<svg version="1.0" xmlns="http://www.w3.org/2000/svg"
 width="900.000000pt" height="345.000000pt" viewBox="0 0 900.000000 345.000000"
 preserveAspectRatio="xMidYMid meet">
<metadata>
Created by potrace 1.10, written by Peter Selinger 2001-2011
</metadata>
<g transform="translate(0.000000,345.000000) scale(0.100000,-0.100000)"
fill="#000000" stroke="none">
<path d="M3411 2231 c-11 -7 -13 -50 -13 -207 -1 -183 1 -199 18 -211 15 -9
29 -10 62 -1 31 8 54 8 78 0 26 -8 45 -7 72 2 56 20 76 55 80 139 4 85 -13
120 -71 152 -33 17 -41 18 -69 6 -73 -29 -70 -30 -63 36 6 48 4 62 -10 76 -18
18 -61 22 -84 8z m202 -233 c31 -37 15 -82 -33 -93 -45 -10 -80 16 -80 59 0
62 71 83 113 34z"/>
<path d="M4971 2224 c-21 -15 -23 -22 -17 -70 7 -60 0 -65 -62 -43 -25 8 -37
7 -69 -10 -51 -26 -60 -37 -73 -96 -13 -59 3 -135 34 -164 32 -28 82 -42 112
-30 14 5 56 8 93 7 l66 -3 3 206 2 207 -22 6 c-34 9 -41 8 -67 -10z m-23 -216
c7 -7 12 -27 12 -44 0 -54 -68 -85 -104 -48 -22 21 -21 80 2 93 24 14 75 14
90 -1z"/>
<path d="M2477 2086 c-31 -28 -37 -40 -37 -74 0 -49 28 -86 75 -102 30 -10 40
-9 68 7 17 10 40 34 50 53 18 33 18 38 3 72 -11 26 -29 44 -56 58 -52 27 -60
26 -103 -14z"/>
<path d="M2842 2103 c-75 -37 -92 -99 -42 -157 36 -40 70 -51 116 -36 94 31
98 150 7 194 -41 19 -40 19 -81 -1z"/>
<path d="M3800 2111 l-25 -7 0 -144 0 -145 46 -3 c62 -4 73 10 60 80 -12 64 2
101 39 106 39 6 50 21 50 68 0 37 -3 44 -19 44 -11 0 -23 -4 -26 -10 -9 -15
-51 -12 -65 5 -13 16 -21 17 -60 6z"/>
<path d="M4074 2100 c-41 -26 -67 -86 -67 -154 0 -60 17 -95 57 -122 25 -16
38 -16 161 -9 39 2 75 4 81 4 7 1 10 50 9 144 l0 142 -34 3 c-19 2 -44 -2 -56
-8 -18 -10 -28 -9 -53 4 -40 21 -60 20 -98 -4z m130 -99 c40 -44 -7 -113 -65
-98 -32 8 -52 48 -39 81 15 40 75 49 104 17z"/>
<path d="M4408 2109 c-15 -8 -18 -26 -17 -129 1 -65 -2 -124 -6 -130 -12 -19
16 -40 55 -40 53 0 62 15 52 86 -4 32 -5 70 -2 83 11 48 84 45 96 -4 4 -15 1
-51 -5 -82 -8 -41 -8 -60 0 -70 14 -17 93 -17 107 0 12 14 0 199 -16 238 -12
30 -52 59 -82 59 -12 0 -34 -7 -51 -15 -19 -10 -35 -13 -47 -7 -31 17 -67 21
-84 11z"/>
<path d="M2273 1880 c-18 -11 -35 -31 -39 -45 -19 -76 34 -248 101 -330 42
-51 146 -135 169 -135 8 0 17 -4 20 -9 4 -5 40 -17 81 -27 67 -16 86 -16 168
-5 50 7 102 19 114 27 12 8 28 14 35 14 24 1 135 98 180 159 43 56 56 84 87
182 14 44 14 114 1 140 -18 32 -67 52 -101 40 -48 -17 -68 -49 -69 -108 0 -69
-34 -153 -78 -196 -21 -20 -63 -50 -96 -66 -50 -27 -68 -31 -137 -31 -69 0
-86 4 -138 31 -72 38 -113 81 -152 159 -21 43 -29 73 -29 113 0 45 -4 59 -26
81 -32 31 -48 32 -91 6z"/>
<path d="M4075 1654 c-12 -12 -14 -25 -8 -52 4 -21 8 -108 8 -195 l0 -158 45
3 45 3 1 175 c0 97 3 181 7 187 11 17 -28 53 -57 53 -14 0 -32 -7 -41 -16z"/>
<path d="M4261 1661 c-11 -7 -14 -50 -14 -207 l0 -199 48 0 47 0 2 195 c1 107
-2 201 -7 208 -11 14 -55 16 -76 3z"/>
<path d="M4789 1649 c-7 -14 -8 -41 -3 -78 4 -31 6 -115 5 -187 l-2 -132 120
0 c104 0 124 3 145 19 28 22 58 77 50 90 -9 15 -89 10 -110 -6 -44 -33 -104
-6 -104 48 0 50 52 73 94 42 25 -19 126 -21 126 -2 0 21 -38 75 -64 93 -18 11
-37 14 -63 11 -95 -14 -88 -18 -85 37 3 60 -16 86 -64 86 -24 0 -37 -6 -45
-21z"/>
<path d="M6142 1568 c-38 -50 -40 -77 -8 -107 20 -18 25 -35 28 -91 3 -55 8
-74 26 -93 26 -28 82 -40 118 -27 20 8 23 14 18 42 -4 18 -13 38 -22 43 -62
40 -70 96 -17 125 39 21 49 78 15 87 -11 3 -27 18 -36 34 -12 24 -21 29 -52
29 -32 0 -42 -6 -70 -42z"/>
<path d="M6875 1540 c-27 -18 -31 -18 -42 -4 -8 11 -24 14 -54 12 l-43 -3 -1
-145 0 -145 35 -6 c59 -9 70 3 70 77 0 78 10 100 50 109 17 4 37 13 45 22 20
20 20 89 -1 97 -23 9 -26 8 -59 -14z"/>
<path d="M3447 1530 c-88 -69 -90 -189 -4 -254 28 -21 45 -26 95 -26 65 0 132
29 132 56 0 19 -61 56 -80 48 -41 -15 -68 -15 -83 1 -45 44 4 122 60 96 61
-28 123 41 72 80 -36 27 -157 27 -192 -1z"/>
<path d="M3758 1520 c-44 -36 -62 -86 -55 -149 4 -39 12 -52 49 -83 40 -35 48
-38 106 -38 69 0 99 16 134 68 26 40 24 127 -4 168 -33 47 -67 64 -135 64 -50
0 -64 -4 -95 -30z m146 -82 c22 -32 20 -55 -8 -83 -53 -53 -130 31 -79 87 23
25 68 23 87 -4z"/>
<path d="M4461 1534 c-53 -37 -74 -138 -43 -207 30 -68 48 -75 185 -75 l117 0
0 138 c0 98 -4 140 -12 147 -22 17 -222 14 -247 -3z m145 -99 c20 -31 12 -69
-19 -90 -30 -19 -64 -9 -82 26 -20 37 -19 45 5 69 29 29 76 26 96 -5z"/>
<path d="M5213 1530 c-34 -20 -68 -74 -58 -90 9 -15 98 -11 119 5 27 20 52 19
76 -5 56 -56 -21 -133 -84 -85 -21 16 -101 21 -110 7 -9 -15 27 -72 59 -92 24
-15 50 -20 97 -20 61 0 66 2 100 38 62 64 60 169 -4 231 -29 28 -37 31 -97 31
-48 0 -75 -5 -98 -20z"/>
<path d="M5519 1546 c-2 -2 -4 -69 -3 -148 l0 -143 54 -3 c29 -2 57 1 62 6 5
5 4 30 -3 59 -16 70 -7 99 40 122 31 16 40 28 45 56 4 19 4 40 1 45 -10 16
-52 12 -59 -6 -5 -14 -8 -14 -28 0 -20 14 -98 23 -109 12z"/>
<path d="M5802 1530 c-72 -60 -67 -230 8 -270 26 -14 96 -12 120 2 15 10 22
10 32 0 6 -6 31 -12 55 -12 38 0 45 4 53 26 6 14 7 31 3 36 -3 6 -9 61 -12
122 l-6 111 -43 3 c-24 2 -50 -2 -58 -9 -11 -9 -18 -9 -26 -1 -19 19 -100 14
-126 -8z m142 -83 c40 -29 9 -107 -42 -107 -54 0 -81 62 -45 102 19 21 62 24
87 5z"/>
<path d="M6427 1529 c-36 -27 -67 -89 -67 -134 0 -44 40 -109 79 -130 17 -8
56 -15 90 -15 56 0 63 3 99 38 67 64 65 164 -5 229 -32 31 -39 33 -101 33 -52
-1 -73 -5 -95 -21z m145 -100 c19 -25 19 -28 4 -58 -14 -26 -23 -31 -51 -31
-55 0 -82 52 -49 98 22 31 70 26 96 -9z"/>
</g>
</svg>
