<svg width="757" height="1050" viewBox="0 0 757 1050" fill="none" xmlns="http://www.w3.org/2000/svg">
<g opacity="0.3" filter="url(#filter0_f_2382_836)">
<path d="M525.192 412.821C521.112 419.967 521.155 428.746 525.303 435.852L568.504 509.847C572.652 516.953 580.277 521.305 588.505 521.265L674.187 520.85C682.415 520.81 689.996 516.384 694.076 509.238L736.557 434.828C740.637 427.682 740.594 418.903 736.446 411.798L693.245 337.802C689.097 330.697 681.472 326.344 673.244 326.384L587.562 326.799C579.334 326.839 571.753 331.265 567.673 338.411L525.192 412.821Z" fill="#79D2DB"/>
<path d="M334.097 529.584C330.017 536.729 330.06 545.509 334.208 552.614L377.409 626.61C381.557 633.715 389.182 638.068 397.41 638.028L483.092 637.613C491.32 637.573 498.901 633.147 502.981 626.001L545.462 551.591C549.542 544.445 549.499 535.666 545.351 528.56L502.15 454.565C498.002 447.459 490.377 443.107 482.149 443.146L396.467 443.562C388.239 443.601 380.658 448.028 376.578 455.173L334.097 529.584Z" fill="#9BEAF2"/>
<path d="M524.624 652.278C520.545 659.424 520.587 668.203 524.736 675.308L567.936 749.304C572.085 756.409 579.709 760.762 587.937 760.722L673.619 760.307C681.847 760.267 689.429 755.841 693.508 748.695L735.99 674.285C740.069 667.139 740.027 658.36 735.878 651.254L692.678 577.259C688.529 570.153 680.905 565.801 672.677 565.841L586.995 566.256C578.767 566.296 571.185 570.722 567.106 577.868L524.624 652.278Z" fill="#6AC5CE"/>
<path d="M577.585 300.993L477.276 131.198" stroke="url(#paint0_linear_2382_836)" stroke-width="9.02201" stroke-linecap="round"/>
<path d="M299.565 536.386L131.615 531.787" stroke="url(#paint1_linear_2382_836)" stroke-width="9.02201" stroke-linecap="round"/>
<path d="M559.343 785.681L455.792 917.991" stroke="url(#paint2_linear_2382_836)" stroke-width="9.02201" stroke-linecap="round"/>
<path d="M707.372 788.422L818.585 914.36" stroke="url(#paint3_linear_2382_836)" stroke-width="9.02201" stroke-linecap="round"/>
</g>
<defs>
<filter id="filter0_f_2382_836" x="-62.3257" y="-50.2831" width="1171.71" height="1175.57" filterUnits="userSpaceOnUse" color-interpolation-filters="sRGB">
<feFlood flood-opacity="0" result="BackgroundImageFix"/>
<feBlend mode="normal" in="SourceGraphic" in2="BackgroundImageFix" result="shape"/>
<feGaussianBlur stdDeviation="63.2838" result="effect1_foregroundBlur_2382_836"/>
</filter>
<linearGradient id="paint0_linear_2382_836" x1="472.54" y1="133.996" x2="572.85" y2="303.79" gradientUnits="userSpaceOnUse">
<stop offset="0.06" stop-color="#7EAFCD" stop-opacity="0"/>
<stop offset="1" stop-color="#7EAFCD"/>
</linearGradient>
<linearGradient id="paint1_linear_2382_836" x1="131.464" y1="537.285" x2="299.415" y2="541.884" gradientUnits="userSpaceOnUse">
<stop offset="0.06" stop-color="#7EAFCD" stop-opacity="0"/>
<stop offset="1" stop-color="#7EAFCD"/>
</linearGradient>
<linearGradient id="paint2_linear_2382_836" x1="460.123" y1="921.381" x2="563.674" y2="789.071" gradientUnits="userSpaceOnUse">
<stop offset="0.06" stop-color="#7EAFCD" stop-opacity="0"/>
<stop offset="1" stop-color="#7EAFCD"/>
</linearGradient>
<linearGradient id="paint3_linear_2382_836" x1="822.708" y1="910.719" x2="711.495" y2="784.782" gradientUnits="userSpaceOnUse">
<stop offset="0.06" stop-color="#7EAFCD" stop-opacity="0"/>
<stop offset="1" stop-color="#7EAFCD"/>
</linearGradient>
</defs>
</svg>
