<?xml version="1.0" encoding="utf-8"?>
<!-- Generator: Adobe Illustrator 27.5.0, SVG Export Plug-In . SVG Version: 6.00 Build 0)  -->
<svg version="1.1" xmlns="http://www.w3.org/2000/svg" xmlns:xlink="http://www.w3.org/1999/xlink" x="0px" y="0px"
	 viewBox="0 0 750 500.001" style="enable-background:new 0 0 750 500.001;" xml:space="preserve">
<g id="BACKGROUND">
	<g>
		<rect style="fill:#EDF3FF;" width="750" height="500.001"/>
		<rect y="392.032" style="fill:#CEE2FD;" width="750" height="107.969"/>
		<rect style="fill:#ADCBFD;" width="527.592" height="392.032"/>
		<rect style="fill:#EDF3FF;" width="509.43" height="382.915"/>
		<polygon style="fill:#DFEBFB;" points="446.35,100.962 446.35,183.179 429.338,183.179 429.338,136.4 366.966,136.4 
			366.966,100.962 327.276,100.962 327.276,183.179 315.935,183.179 315.935,100.962 291.836,100.962 291.836,154.828 
			253.563,154.828 253.563,183.179 240.097,183.179 240.097,273.193 222.376,273.193 222.376,178.927 195.441,178.927 
			195.441,172.548 195.441,143.488 169.217,143.488 169.217,161.208 144.41,161.208 144.41,172.548 120.311,172.548 
			120.311,178.927 114.344,178.927 114.344,97.858 62.713,97.858 62.713,129.129 0,129.129 0,382.915 62.713,382.915 
			65.547,382.915 104.009,382.915 114.344,382.915 178.434,382.915 222.376,382.915 240.097,382.915 299.633,382.915 
			509.43,382.915 509.43,312.884 509.43,183.179 509.43,100.962 		"/>
		<g>
			<path style="fill:#9BAFCA;" d="M654.091,126.661c0,2.761-2.238,5-5,5h-67.096c-2.762,0-5-2.239-5-5V59.565c0-2.761,2.238-5,5-5
				h67.096c2.762,0,5,2.239,5,5V126.661z"/>
			<path style="fill:#FFFFFF;" d="M649.063,121.633c0,2.761-2.238,5-5,5h-57.039c-2.762,0-5-2.239-5-5V64.594c0-2.761,2.238-5,5-5
				h57.039c2.762,0,5,2.239,5,5V121.633z"/>
			<path style="fill:#9BAFCA;" d="M637.843,97.616l-22.474-1.676l-1.69-25.172l-1.748,26.051c-0.14,0.28-0.214,0.597-0.19,0.932
				c0.04,0.524,0.302,0.975,0.684,1.277c0.354,0.344,0.843,0.547,1.375,0.511c0.24-0.016,0.465-0.08,0.669-0.179L637.843,97.616z"/>
			<g>
				<path style="fill:#9BAFCA;" d="M615.18,119.675c-1.718,0-3.437-0.165-5.108-0.491c-0.271-0.053-0.448-0.315-0.396-0.586
					c0.054-0.272,0.317-0.449,0.587-0.395c1.914,0.373,3.903,0.524,5.854,0.456c0.276-0.033,0.508,0.206,0.518,0.482
					c0.01,0.276-0.206,0.507-0.482,0.517C615.829,119.669,615.505,119.675,615.18,119.675z M629.323,115.507
					c-0.163,0-0.324-0.081-0.42-0.229c-0.149-0.231-0.084-0.541,0.148-0.691c1.646-1.065,3.17-2.321,4.53-3.733
					c0.193-0.198,0.51-0.205,0.707-0.013c0.199,0.191,0.205,0.508,0.014,0.707c-1.414,1.467-2.998,2.771-4.708,3.878
					C629.511,115.481,629.417,115.507,629.323,115.507z M597.79,113.025c-0.119,0-0.238-0.042-0.334-0.127
					c-1.519-1.362-2.88-2.897-4.046-4.563c-0.159-0.226-0.104-0.538,0.122-0.696c0.227-0.158,0.539-0.104,0.696,0.123
					c1.123,1.604,2.434,3.081,3.896,4.392c0.205,0.185,0.223,0.501,0.038,0.706C598.063,112.969,597.927,113.025,597.79,113.025z
					 M640.56,99.559c-0.037,0-0.075-0.004-0.113-0.013c-0.27-0.063-0.437-0.331-0.374-0.601c0.444-1.898,0.669-3.861,0.669-5.832
					c0.001-1.247-0.09-2.502-0.27-3.728c-0.04-0.273,0.149-0.527,0.423-0.567c0.265-0.044,0.526,0.148,0.567,0.422
					c0.187,1.274,0.28,2.578,0.279,3.873c0,2.047-0.233,4.086-0.694,6.059C640.992,99.403,640.787,99.559,640.56,99.559z
					 M589.187,95.52c-0.259,0-0.479-0.201-0.498-0.464c-0.047-0.643-0.07-1.296-0.07-1.942c0-1.389,0.108-2.786,0.322-4.151
					c0.043-0.274,0.304-0.456,0.571-0.417c0.273,0.043,0.46,0.299,0.417,0.571c-0.206,1.315-0.311,2.659-0.311,3.997
					c0,0.622,0.023,1.251,0.068,1.87c0.02,0.275-0.188,0.515-0.463,0.535C589.212,95.519,589.199,95.52,589.187,95.52z
					 M635.391,77.158c-0.145,0-0.289-0.063-0.388-0.184c-1.239-1.521-2.653-2.899-4.204-4.097c-0.219-0.169-0.259-0.483-0.09-0.701
					c0.17-0.219,0.484-0.258,0.701-0.09c1.611,1.245,3.081,2.677,4.368,4.256c0.175,0.214,0.143,0.529-0.072,0.704
					C635.613,77.122,635.502,77.158,635.391,77.158z M595.145,76.945c-0.113,0-0.227-0.038-0.32-0.116
					c-0.212-0.177-0.24-0.492-0.063-0.704c1.304-1.566,2.789-2.983,4.412-4.211c0.221-0.166,0.534-0.123,0.7,0.097
					c0.167,0.22,0.123,0.534-0.097,0.701c-1.564,1.182-2.992,2.545-4.248,4.053C595.43,76.884,595.287,76.945,595.145,76.945z
					 M618.31,67.738c-0.021,0-0.04-0.001-0.06-0.003c-1.932-0.232-3.94-0.24-5.871-0.031c-0.256,0.028-0.521-0.168-0.551-0.443
					c-0.03-0.274,0.168-0.521,0.443-0.551c2.003-0.217,4.09-0.209,6.098,0.032c0.274,0.033,0.47,0.282,0.437,0.556
					C618.774,67.551,618.559,67.738,618.31,67.738z"/>
			</g>
		</g>
		<g>
			<path style="fill:#6796CC;" d="M59.626,403.561c0,0-2.841-4.398,0-9.235c2.84-4.838,36.599-26.166,26.573-34.521
				c-10.026-8.355-27.836,14.951-27.836,14.951s-15.282-43.757-34.167-35.4c-18.884,8.355,3.511,37.16,3.511,37.16
				s-8.188,1.1-8.022,9.895c0.166,8.796,18.717,3.518,22.394,17.151H59.626z"/>
			<path style="fill:#73A0E3;" d="M38.677,403.561c0,0,2.842-4.398,0-9.235c-2.84-4.838-36.598-26.166-26.572-34.521
				c10.027-8.355,27.837,14.951,27.837,14.951s15.28-43.757,34.166-35.4c18.883,8.355-3.51,37.16-3.51,37.16s8.188,1.1,8.022,9.895
				c-0.167,8.796-18.717,3.518-22.394,17.151H38.677z"/>
			<path style="fill:#A1C0F7;" d="M27.706,398.804h45.517c0,0,0.219,22.428-22.759,22.428
				C27.485,421.232,27.706,398.804,27.706,398.804z"/>
			<path style="fill:#AECDFB;" d="M39.927,408.698c-1.458-3.035-2.761-6.41-3.58-9.895h-8.642c0,0-0.199,21.849,21.913,22.402
				C45.655,418.032,42.411,414.007,39.927,408.698z"/>
		</g>
	</g>
</g>
<g id="OBJECTS">
	<g>
		<g>
			<rect x="657.756" y="361.113" style="fill:#303D60;" width="3.947" height="76.101"/>
			<rect x="655.163" y="361.113" style="fill:#40598F;" width="9.132" height="17.479"/>
			<path style="fill:#303D60;" d="M631.229,349.835c0,0,0.028,0.006,0.083,0.018c0.038,0.001,0.094,0.004,0.17,0.007
				c0.184,0.021,0.466,0.06,0.84,0.123c0.756,0.115,1.889,0.272,3.313,0.455c1.423,0.188,3.148,0.36,5.074,0.5
				c1.932,0.127,4.071,0.198,6.319,0.108c2.241-0.087,4.594-0.289,6.914-0.787c1.168-0.202,2.32-0.52,3.461-0.874
				c0.576-0.161,1.135-0.381,1.705-0.566c0.549-0.242,1.121-0.435,1.664-0.701c2.216-0.969,4.329-2.259,6.392-3.82
				c0.091-0.071-0.693,0.566-0.347,0.282l0.033-0.027l0.06-0.053l0.126-0.107l0.251-0.214l0.252-0.214l0.12-0.1l-0.015-0.006
				c-0.017-0.005-0.028-0.003-0.035,0.006c-0.003,0.002-0.006,0.007-0.003,0.014c-0.007,0.016,0.056-0.069,0.083-0.1
				c0.272-0.304,0.592-0.725,0.921-1.184c0.657-0.945,1.335-2.15,1.993-3.396c1.291-2.535,2.438-5.415,3.396-8.324
				c0.469-1.462,0.926-2.935,1.323-4.408c0.374-1.479,0.733-2.95,1.05-4.41c0.606-2.923,1.073-5.785,1.357-8.515
				c0.304-2.727,0.452-5.323,0.457-7.711c0.005-2.389-0.063-4.595-0.259-6.527c-0.073-0.977-0.211-1.869-0.298-2.721
				c-0.132-0.837-0.248-1.606-0.357-2.304c-0.269-1.375-0.46-2.493-0.667-3.22c-0.167-0.755-0.257-1.155-0.257-1.155l-0.093-0.424
				c-0.534-2.421,0.994-4.818,3.415-5.353c1.811-0.401,3.608,0.357,4.622,1.775c0,0,0.294,0.407,0.837,1.169
				c0.551,0.768,1.277,1.931,2.168,3.459c0.397,0.777,0.866,1.636,1.323,2.596c0.41,0.967,0.935,2.008,1.342,3.154
				c0.912,2.282,1.69,4.928,2.371,7.855c0.326,1.467,0.602,3,0.856,4.599c0.207,1.596,0.399,3.254,0.522,4.962
				c0.222,3.413,0.233,7.023-0.072,10.741c-0.274,3.72-0.882,7.541-1.799,11.401c-0.461,1.93-1.024,3.867-1.654,5.816
				c-0.67,1.943-1.406,3.885-2.317,5.845c-0.904,1.969-1.915,3.925-3.266,5.921c-0.685,1.007-1.42,2.017-2.307,3.052
				c-0.118,0.139-0.188,0.23-0.349,0.405l-0.466,0.49c-0.313,0.325-0.633,0.645-0.958,0.957l-0.242,0.233l-0.132,0.117l-0.248,0.218
				l-0.249,0.217l-0.125,0.108l-0.063,0.055l-0.441,0.362c-3.516,2.729-7.522,4.823-11.575,6.227c-1.005,0.375-2.043,0.607-3.05,0.9
				c-1.021,0.227-2.029,0.472-3.031,0.637c-2.011,0.321-3.981,0.504-5.875,0.544c-3.802,0.071-7.284-0.399-10.359-1.118
				c-3.078-0.729-5.759-1.679-8.025-2.714c-2.273-1.011-4.139-2.091-5.63-3.039c-1.49-0.952-2.593-1.816-3.347-2.43
				c-0.381-0.302-0.669-0.556-0.869-0.732c-0.116-0.099-0.205-0.174-0.264-0.225c-0.041-0.04-0.063-0.06-0.063-0.06
				c-1.808-1.812-1.805-4.743,0.006-6.551c1.141-1.141,2.729-1.561,4.199-1.26L631.229,349.835z"/>
			<path style="fill:#303D60;" d="M637.911,439.08c0-4.637,9.768-8.397,21.816-8.397c12.053,0,21.82,3.761,21.82,8.397H637.911z"/>
			<path style="fill:#40598F;" d="M669.485,354.272c22.016-11.115,16.977-57.287,9.614-69.957c-2.077,0.762-3.334,2.944-2.844,5.166
				l0.093,0.424c0,0,0.09,0.4,0.257,1.155c0.207,0.727,0.398,1.845,0.667,3.22c0.109,0.697,0.226,1.467,0.357,2.304
				c0.087,0.852,0.225,1.744,0.298,2.721c0.196,1.933,0.264,4.139,0.259,6.527c-0.005,2.388-0.153,4.984-0.457,7.711
				c-0.284,2.729-0.752,5.592-1.357,8.515c-0.316,1.46-0.676,2.931-1.05,4.41c-0.397,1.474-0.854,2.946-1.323,4.408
				c-0.958,2.909-2.104,5.789-3.396,8.324c-0.658,1.245-1.336,2.45-1.993,3.396c-0.329,0.459-0.648,0.88-0.921,1.184
				c-0.021,0.022-0.053,0.065-0.07,0.084c0.009-0.003,0.013-0.009,0.025-0.004l0.015,0.006l-0.12,0.1l-0.252,0.214l-0.22,0.188
				c0.031-0.024,0.065-0.046,0.096-0.07c0.091-0.071-0.693,0.566-0.347,0.282l0.033-0.027l0.06-0.053l0.126-0.107l0.031-0.025
				c-2.032,1.528-4.114,2.797-6.296,3.75c-0.543,0.267-1.115,0.459-1.664,0.701c-0.57,0.186-1.129,0.405-1.705,0.566
				c-1.141,0.354-2.293,0.672-3.461,0.874c-2.32,0.498-4.673,0.7-6.914,0.787c-2.248,0.09-4.388,0.019-6.319-0.108
				c-1.926-0.14-3.651-0.313-5.074-0.5c-1.424-0.183-2.557-0.34-3.313-0.455c-0.374-0.064-0.656-0.103-0.84-0.123
				c-0.076-0.003-0.132-0.006-0.17-0.007c-0.055-0.012-0.083-0.018-0.083-0.018l-0.087-0.019c-1.47-0.301-3.059,0.119-4.199,1.26
				c-0.43,0.428-0.746,0.92-0.971,1.441C633.995,356.865,651.152,363.531,669.485,354.272z"/>
		</g>
		<g>
			<rect x="88.297" y="361.113" style="fill:#303D60;" width="3.947" height="76.101"/>
			<rect x="85.705" y="361.113" style="fill:#40598F;" width="9.132" height="17.479"/>
			<path style="fill:#303D60;" d="M118.771,349.835c0,0-0.028,0.006-0.082,0.018c-0.039,0.001-0.094,0.004-0.169,0.007
				c-0.184,0.021-0.466,0.06-0.84,0.123c-0.755,0.115-1.889,0.272-3.313,0.455c-1.423,0.188-3.148,0.36-5.075,0.5
				c-1.931,0.127-4.071,0.198-6.318,0.108c-2.242-0.087-4.595-0.289-6.915-0.787c-1.168-0.202-2.32-0.52-3.461-0.874
				c-0.576-0.161-1.135-0.381-1.706-0.566c-0.549-0.242-1.121-0.435-1.664-0.701c-2.216-0.969-4.329-2.259-6.391-3.82
				c-0.091-0.071,0.693,0.566,0.347,0.282l-0.033-0.027l-0.062-0.053l-0.125-0.107l-0.251-0.214l-0.252-0.214l-0.12-0.1l0.014-0.006
				c0.017-0.005,0.029-0.003,0.036,0.006c0.003,0.002,0.006,0.007,0.003,0.014c0.007,0.016-0.056-0.069-0.083-0.1
				c-0.272-0.304-0.592-0.725-0.921-1.184c-0.657-0.945-1.334-2.15-1.993-3.396c-1.291-2.535-2.437-5.415-3.396-8.324
				c-0.469-1.462-0.925-2.935-1.323-4.408c-0.374-1.479-0.733-2.95-1.049-4.41c-0.606-2.923-1.074-5.785-1.358-8.515
				c-0.304-2.727-0.452-5.323-0.458-7.711c-0.004-2.389,0.063-4.595,0.26-6.527c0.072-0.977,0.211-1.869,0.298-2.721
				c0.131-0.837,0.248-1.606,0.356-2.304c0.27-1.375,0.46-2.493,0.667-3.22c0.166-0.755,0.256-1.155,0.256-1.155l0.093-0.424
				c0.535-2.421-0.994-4.818-3.415-5.353c-1.81-0.401-3.608,0.357-4.622,1.775c0,0-0.294,0.407-0.837,1.169
				c-0.55,0.768-1.278,1.931-2.167,3.459c-0.398,0.777-0.867,1.636-1.323,2.596c-0.411,0.967-0.936,2.008-1.342,3.154
				c-0.913,2.282-1.69,4.928-2.372,7.855c-0.327,1.467-0.602,3-0.855,4.599c-0.207,1.596-0.399,3.254-0.522,4.962
				c-0.223,3.413-0.234,7.023,0.071,10.741c0.275,3.72,0.883,7.541,1.8,11.401c0.461,1.93,1.023,3.867,1.654,5.816
				c0.67,1.943,1.406,3.885,2.317,5.845c0.904,1.969,1.915,3.925,3.265,5.921c0.685,1.007,1.42,2.017,2.308,3.052
				c0.118,0.139,0.187,0.23,0.348,0.405l0.466,0.49c0.314,0.325,0.633,0.645,0.958,0.957l0.242,0.233l0.131,0.117l0.248,0.218
				l0.25,0.217l0.124,0.108l0.063,0.055l0.442,0.362c3.515,2.729,7.522,4.823,11.574,6.227c1.005,0.375,2.043,0.607,3.05,0.9
				c1.021,0.227,2.029,0.472,3.032,0.637c2.01,0.321,3.981,0.504,5.875,0.544c3.801,0.071,7.284-0.399,10.359-1.118
				c3.077-0.729,5.758-1.679,8.025-2.714c2.273-1.011,4.138-2.091,5.629-3.039c1.49-0.952,2.593-1.816,3.347-2.43
				c0.381-0.302,0.669-0.556,0.869-0.732c0.117-0.099,0.205-0.174,0.264-0.225c0.042-0.04,0.063-0.06,0.063-0.06
				c1.808-1.812,1.805-4.743-0.006-6.551c-1.141-1.141-2.729-1.561-4.199-1.26L118.771,349.835z"/>
			<path style="fill:#303D60;" d="M112.09,439.08c0-4.637-9.768-8.397-21.817-8.397c-12.052,0-21.82,3.761-21.82,8.397H112.09z"/>
			<path style="fill:#40598F;" d="M80.515,354.272c-22.015-11.115-16.978-57.287-9.614-69.957c2.078,0.762,3.334,2.944,2.843,5.166
				l-0.093,0.424c0,0-0.09,0.4-0.256,1.155c-0.207,0.727-0.398,1.845-0.667,3.22c-0.108,0.697-0.225,1.467-0.356,2.304
				c-0.087,0.852-0.226,1.744-0.298,2.721c-0.197,1.933-0.264,4.139-0.26,6.527c0.006,2.388,0.154,4.984,0.458,7.711
				c0.284,2.729,0.751,5.592,1.358,8.515c0.316,1.46,0.676,2.931,1.049,4.41c0.398,1.474,0.854,2.946,1.323,4.408
				c0.958,2.909,2.105,5.789,3.396,8.324c0.659,1.245,1.336,2.45,1.993,3.396c0.33,0.459,0.649,0.88,0.921,1.184
				c0.02,0.022,0.053,0.065,0.07,0.084c-0.009-0.003-0.013-0.009-0.026-0.004l-0.014,0.006l0.12,0.1l0.252,0.214l0.22,0.188
				c-0.031-0.024-0.064-0.046-0.096-0.07c-0.091-0.071,0.693,0.566,0.347,0.282l-0.033-0.027l-0.062-0.053l-0.125-0.107
				l-0.031-0.025c2.032,1.528,4.114,2.797,6.295,3.75c0.543,0.267,1.115,0.459,1.664,0.701c0.571,0.186,1.129,0.405,1.706,0.566
				c1.141,0.354,2.293,0.672,3.461,0.874c2.32,0.498,4.673,0.7,6.915,0.787c2.247,0.09,4.388,0.019,6.318-0.108
				c1.926-0.14,3.652-0.313,5.075-0.5c1.423-0.183,2.557-0.34,3.313-0.455c0.374-0.064,0.656-0.103,0.84-0.123
				c0.075-0.003,0.131-0.006,0.169-0.007c0.054-0.012,0.082-0.018,0.082-0.018l0.087-0.019c1.47-0.301,3.059,0.119,4.199,1.26
				c0.429,0.428,0.746,0.92,0.971,1.441C116.005,356.865,98.848,363.531,80.515,354.272z"/>
		</g>
		<g>
			<g>
				<path style="fill:#EAA294;" d="M293.966,178.752c2.326-6.132,9.493,0.636,15.246,12.671
					c5.385,11.265,10.988,27.331,10.988,27.331l25.196-29.813c0,0-1.733-7.455,0.1-11.108c1.836-3.65,5.35-7.507,5.734-5.879
					c0.381,1.628-3.44,6.675-2.688,7.272c0.751,0.598,8.612-9.943,9.867-10.523c1.26-0.579,5.126,8.153,0.18,16.044
					c-3.961,6.318-9.714,7.868-9.714,7.868s-18.814,50.265-32.155,45.936C307.322,235.501,287.272,196.414,293.966,178.752z"/>
				<g>
					<path style="fill:#EF7E82;" d="M352.654,178.789c4.401-3.435,6.158-7.83,6.174-7.874c0.043-0.107,0.163-0.155,0.272-0.118
						c0.106,0.041,0.16,0.164,0.118,0.271c-0.018,0.046-1.81,4.542-6.307,8.05c-0.033,0.026-0.073,0.04-0.115,0.043
						c-0.067,0.004-0.132-0.023-0.177-0.08C352.548,178.99,352.564,178.858,352.654,178.789z"/>
					<path style="fill:#EF7E82;" d="M353.837,181.335c4.591-2.104,5.775-7.434,5.787-7.486c0.026-0.112,0.135-0.184,0.249-0.161
						c0.112,0.024,0.185,0.136,0.16,0.249c-0.012,0.054-1.237,5.584-6.021,7.777c-0.025,0.011-0.05,0.017-0.073,0.018
						c-0.086,0.007-0.168-0.042-0.204-0.121C353.688,181.507,353.733,181.384,353.837,181.335z"/>
					<path style="fill:#EF7E82;" d="M359.645,178.77c0.006-0.104,0.088-0.19,0.194-0.197c0.116-0.007,0.215,0.08,0.224,0.194
						c0.021,0.307-1.224,3.207-4.419,5.471c-0.032,0.023-0.068,0.034-0.107,0.037c-0.071,0.006-0.141-0.026-0.184-0.088
						c-0.068-0.094-0.045-0.224,0.048-0.291C358.447,181.738,359.58,179.098,359.645,178.77z"/>
				</g>
				<path style="fill:#95BBE8;" d="M300.634,178.573c1.546,0.551,12.243,13.672,19.828,39.089l2.202-3.793l6.827,17.313
					c0,0-5.31,8.936-11.683,8.253c-6.374-0.682-17.173-18.13-17.173-18.13V178.573z"/>
				<path style="fill:#7BAAD6;" d="M320.786,217.105l1.878-3.236l6.827,17.313c0,0-1.294,2.172-3.369,4.293
					c-1.954-3.843-3.021-8.326-4.142-12.349C321.463,221.173,321.06,219.148,320.786,217.105z"/>
				<path style="fill:#95BBE8;" d="M334.402,229.436c-0.024,1.151-4.011,3.782-5.194,3.94c-1.183,0.154-10.322-16.423-8.867-18.483
					c1.457-2.059,5.085-5.115,6.2-4.108C327.656,211.797,334.402,229.436,334.402,229.436z"/>
			</g>
			<polygon style="fill:#7BAAD6;" points="304.03,183.038 301.84,175.316 290.891,169.269 288.619,173.684 			"/>
			<g>
				<g>
					<path style="fill:#EAA294;" d="M362.579,429.002c0,0-2.657-1.688-3.472-3.043c-0.812-1.356-5.748-14.74-11.913-21.185
						l-6.43-18.034l-9.781,3.488l8.45,19.783c0,0-3.014,2.593-2.392,5.298c0,0,9.251,3.325,11.765,8.992
						c2.515,5.668,5.288,8.134,5.288,8.134L362.579,429.002z"/>
					<path style="fill:#4C688D;" d="M336.95,410.897c0,0-2.692,4.452-0.996,7.818c0,0,9.165,1.939,11.178,6.656
						c2.01,4.712,4.588,9.642,5.25,9.649c0.663,0.009,18.289-6.408,18.289-6.408s-5.213-1.466-9.473-2.331
						c0,0-5.728,5.168-6.948,4.288c-1.22-0.883-5.215-10.07-7.653-13.157C342.847,412.663,336.95,410.897,336.95,410.897z"/>
					<path style="fill:#4C688D;" d="M345.712,437.782c0,0-6.452-13.024-9.758-19.066c0,0,4.533-2.742,6.676,1.184l4.835,17.256
						L345.712,437.782z"/>
				</g>
				<g>
					<path style="fill:#EAA294;" d="M250.401,432.93c0,0-0.977-2.992-0.742-4.556c0.237-1.562,4.95-15.028,4.295-23.92l6.52-18.002
						l-9.764-3.537l-6.076,20.638c0,0-3.974,0.082-5.216,2.563c0,0,5.019,8.452,3.352,14.425c-1.668,5.971-1.101,9.642-1.101,9.642
						L250.401,432.93z"/>
					<path style="fill:#4C688D;" d="M242.156,402.655c0,0-4.91,1.722-5.745,5.396c0,0,5.835,7.33,4.385,12.249
						c-1.449,4.913-2.597,10.354-2.092,10.784c0.505,0.429,18.186,6.697,18.186,6.697s-3.09-4.445-5.824-7.827
						c0,0-7.708,0.341-8.087-1.116c-0.38-1.456,2.387-11.085,2.471-15.017C245.581,407.77,242.156,402.655,242.156,402.655z"/>
					<path style="fill:#4C688D;" d="M231.803,428.969c0,0,3.313-14.154,4.608-20.917c0,0,5.241,0.772,4.397,5.161l-7.255,16.389
						L231.803,428.969z"/>
				</g>
				<path style="fill:#74A0DF;" d="M272.422,261.088c0,0,0.141,59.423-4.121,66.783c-4.261,7.365-19.762,35.257-24.795,70.517
					c0,0,5.667,5.209,14.457,3.384c0,0,33.656-77.002,40.401-104.119C305.109,270.525,272.422,261.088,272.422,261.088z"/>
				<path style="fill:#5590C8;" d="M272.422,261.088c0,0,0.032,13.587-0.399,28.575c2.674,5.932,4.872,12.095,6.857,18.047
					c2.74,7.634,5.666,15.746,7.947,23.96c5.165-13.525,9.536-25.967,11.539-34.018
					C305.109,270.525,272.422,261.088,272.422,261.088z"/>
				<path style="fill:#74A0DF;" d="M272.422,245.324c0,0,11.865,4.279,33.706,1.568c0,0,14.482,61.029,21.068,86.498
					c6.586,25.48,22.084,68.381,22.084,68.381s-4.262,3.505-13.172,3.549c0,0-21.17-28.022-25.97-52.786
					c-5.276-27.208-24.545-55.582-29.317-64.628C276.051,278.859,267.634,268.942,272.422,245.324z"/>
				<path style="fill:#5590C8;" d="M308.473,256.736c-1.447-6.062-2.345-9.844-2.345-9.844c-21.841,2.711-33.706-1.568-33.706-1.568
					c-0.979,4.825-1.383,9.058-1.401,12.851C283.266,258.822,295.976,258.163,308.473,256.736z"/>
			</g>
			<g>
				<path style="fill:#A7CDFE;" d="M287.933,173.206c-8.624,7.863-18.984,41.283-17.814,72.998c0,0,17.817,7.962,36.965,0.708
					c0,0,2.331-31.754-1.12-52.66C302.511,173.346,293.12,168.479,287.933,173.206z"/>
				<path style="fill:#95BBE8;" d="M293.03,218.094c1.265-15.708,2.963-31.633-3.454-45.994c-0.58,0.274-1.132,0.642-1.643,1.107
					c-8.624,7.863-18.984,41.283-17.814,72.998c0,0,10.509,4.687,24.055,3.585C290.068,240.168,292.138,229.654,293.03,218.094z"/>
				<path style="fill:#7BAAD6;" d="M289.098,225.692c0.755,0.869-0.431,5.495-1.204,6.407c-0.624,0.736-12.418-3.131-17.093-5.966
					c0.292-2.925,0.658-5.812,1.092-8.644C276.039,219.072,289.098,225.692,289.098,225.692z"/>
			</g>
			<g>
				<g>
					<path style="fill:#1E0F21;" d="M276.218,289.465l-9.932-22.303c-0.1-0.227-0.301-0.386-0.544-0.434
						c-0.246-0.044-0.491,0.03-0.664,0.199l-8.868,8.554c-0.228,0.217-0.293,0.561-0.164,0.85l10.018,22.218
						c0.104,0.222,0.303,0.38,0.546,0.43c0.046,0.01,0.093,0.013,0.14,0.013c0.194,0,0.38-0.074,0.52-0.207l8.785-8.472
						C276.279,290.089,276.344,289.754,276.218,289.465z"/>
					<path style="fill:#412249;" d="M276.218,289.465l-9.932-22.303c-0.1-0.227-0.301-0.386-0.544-0.434
						c-0.246-0.044-0.491,0.03-0.664,0.199l-0.56,0.537l9.8,22c0.129,0.289,0.061,0.624-0.167,0.848l-8.225,7.935l0.137,0.302
						c0.104,0.222,0.303,0.38,0.546,0.43c0.046,0.01,0.093,0.013,0.14,0.013c0.194,0,0.38-0.074,0.52-0.207l8.785-8.472
						C276.279,290.089,276.344,289.754,276.218,289.465z"/>
				</g>
				<g>
					<path style="fill:#EAA294;" d="M287.518,175.569c-5.376-1.181-13.909,25.519-16.718,43.535
						c-2.806,18.021-6.109,51.377-6.109,51.377s-8.255,8.877-7.908,10.612c0.344,1.733,2.428,2.154,2.428,2.154
						s-0.975,2.634,1.248,3.396c0,0-0.819,3.561,2.024,3.422c0,0,8.449-10.638,9.076-10.289c0.625,0.347,3.667,7.459,3.667,7.459
						s3.684-7.976-2.522-15.955c0,0,9.783-33.076,15.46-54.686C293.845,194.988,295.846,177.394,287.518,175.569z"/>
					<g>
						<g>
							<path style="fill:#EF7E82;" d="M259.212,283.497c-0.056,0-0.112-0.018-0.159-0.057c-0.106-0.088-0.122-0.245-0.035-0.353
								l2.744-3.339c0.088-0.108,0.246-0.122,0.352-0.035c0.107,0.088,0.122,0.245,0.035,0.353l-2.744,3.339
								C259.355,283.466,259.284,283.497,259.212,283.497z"/>
						</g>
						<g>
							<path style="fill:#EF7E82;" d="M260.46,286.893c-0.062,0-0.124-0.022-0.172-0.069c-0.1-0.095-0.104-0.253-0.009-0.354
								l3.609-3.789c0.097-0.099,0.254-0.103,0.354-0.008c0.1,0.095,0.104,0.253,0.009,0.353l-3.609,3.789
								C260.592,286.866,260.526,286.893,260.46,286.893z"/>
						</g>
					</g>
				</g>
			</g>
			<g>
				<g>
					<polygon style="fill:#EAA294;" points="300.919,179.359 301.84,161.991 307.867,163.014 309.707,155.251 314.198,154.534 
						307.559,137.575 290.499,135.124 292.177,161.888 289.445,172.667 					"/>
					<g>
						<polygon style="fill:#EF7E82;" points="301.84,161.991 301.529,167.856 294.893,160.87 						"/>
						<polygon style="fill:#EF7E82;" points="314.198,154.534 309.707,155.251 308.592,154.109 						"/>
					</g>
					<path style="opacity:0.5;fill:#EF7E82;" d="M304.863,151.841c0,1.478-1.195,2.672-2.669,2.672
						c-1.474,0-2.671-1.194-2.671-2.672c0-1.472,1.198-2.67,2.671-2.67C303.668,149.171,304.863,150.369,304.863,151.841z"/>
				</g>
				<g>
					<path style="fill:#303C62;" d="M306.128,149.171c0,0.931,0.388,1.687,0.871,1.687c0.477,0,0.868-0.756,0.868-1.687
						c0-0.93-0.392-1.686-0.868-1.686C306.517,147.485,306.128,148.241,306.128,149.171z"/>
					<path style="fill:#EF7E82;" d="M302.691,154.352c0.015,1.239,0.177,2.448,0.871,3.502c0.735,1.113,2.095,1.529,3.339,1.718
						c0.315,0.048,0.18,0.527-0.132,0.481c-1.314-0.2-2.677-0.662-3.502-1.769c-0.853-1.142-1.059-2.538-1.074-3.932
						C302.189,154.029,302.688,154.029,302.691,154.352z"/>
					<g>
						<path style="fill:#303C62;" d="M306.208,143.302c-0.494-0.042-1.204,0.102-1.392,0.632c-0.106,0.304-0.589,0.172-0.479-0.129
							c0.262-0.749,1.131-1.063,1.872-1C306.525,142.832,306.525,143.332,306.208,143.302L306.208,143.302z"/>
					</g>
				</g>
				<g>
					<path style="fill:#303C62;" d="M311.9,135.124c-0.927,1.84-9.157,8.697-17.622,8.635c0,0-3.853,4.604-2.818,10.069
						c1.04,5.463,6.049,9.761-0.507,14.548c-6.555,4.791-22.294,1.823-24.732-7.507c-2.439-9.333,3.085-18.2,9.212-23.862
						c0.794-0.736,0.245-7.801,7.551-11.368C296.717,118.929,315.177,128.627,311.9,135.124z"/>
					<g>
						<path style="fill:#3E6CAA;" d="M298.28,138.59c4.898-1.023,6.875-5.131,8.384-9.453c0.17-0.495,0.961-0.282,0.786,0.219
							c-1.118,3.214-2.413,6.371-5.212,8.476c-3.578,2.684-8.698,1.311-12.059,4.501c-3.955,3.751-1.813,9.975-0.338,14.319
							c1.292,3.821,2.504,7.063-0.209,10.506c-0.327,0.417-0.899-0.17-0.577-0.578c3.183-4.041,0.063-9.064-1.157-13.345
							c-1.083-3.792-1.161-7.653,1.242-10.947C291.207,139.456,295.156,139.243,298.28,138.59z"/>
						<path style="fill:#3E6CAA;" d="M281.508,153.246c-1.03-3.689-1.545-7.327,0.175-10.896c1.58-3.285,5.073-5.272,8.108-6.986
							c4.219-2.384,7.68-5.054,10.402-9.125c0.29-0.437,1-0.027,0.706,0.413c-2.269,3.394-5.093,6.121-8.594,8.227
							c-3.996,2.405-8.563,4.338-10.395,8.982c-2.99,7.576,6.548,17.007-1.671,22.831c-0.431,0.307-0.838-0.403-0.414-0.706
							C284.382,162.756,282.796,157.847,281.508,153.246z"/>
						<path style="fill:#3E6CAA;" d="M271.714,152.232c0.22-3.52,1.712-6.789,3.446-9.797c3.745-6.512,9.268-11.828,14.122-17.491
							c0.34-0.401,0.919,0.182,0.578,0.58c-4.984,5.811-10.497,11.242-14.342,17.924c-2.048,3.558-3.324,7.496-2.958,11.633
							c0.275,3.092,2.476,6.646,1.013,9.648c-0.232,0.476-0.935,0.059-0.709-0.412c1.008-2.064-0.244-4.757-0.72-6.846
							C271.75,155.736,271.605,154.008,271.714,152.232z"/>
					</g>
				</g>
				<g>
					<path style="fill:#EAA294;" d="M285.492,151.467c0,3.017,2.444,5.463,5.461,5.463c3.013,0,5.458-2.446,5.458-5.463
						c0-3.014-2.445-5.458-5.458-5.458C287.936,146.009,285.492,148.453,285.492,151.467z"/>
					<path style="fill:#EF7E82;" d="M288.883,149.202c1.321-0.175,2.866-0.144,3.797,0.975c0.443,0.534,0.753,1.108,0.92,1.696
						c-0.887-0.257-1.901-0.066-2.086,1.039c-0.177,1.06,0.437,1.991,1.43,2.305c-0.088,0.116-0.179,0.229-0.282,0.34
						c-0.218,0.233,0.134,0.588,0.35,0.35c1.451-1.571,1.718-3.703,0.454-5.514c-1.112-1.589-2.734-1.935-4.583-1.689
						C288.57,148.748,288.567,149.244,288.883,149.202z M293.719,152.442c0.107,0.796-0.05,1.6-0.487,2.344
						c-0.773-0.188-1.423-0.897-1.234-1.74C292.194,152.139,293.009,152.121,293.719,152.442z"/>
				</g>
			</g>
			<polygon style="fill:#95BBE8;" points="300.968,184.583 301.84,175.316 289.445,169.269 287.174,173.684 			"/>
			<path style="fill:#A7CDFE;" d="M287.174,229.483l-18.333-6.118c0,0,9.339-50.993,19.796-48.394
				C299.093,177.572,289.306,222.044,287.174,229.483z"/>
			<path style="fill:#95BBE8;" d="M288.378,224.684c0.755,0.868-0.431,5.494-1.204,6.406c-0.772,0.908-18.674-5.236-18.979-7.74
				c-0.305-2.501,0.33-7.206,1.833-7.206C271.532,216.144,288.378,224.684,288.378,224.684z"/>
		</g>
		<g>
			<g>
				<g>
					<g>
						<polygon style="fill:#A96F49;" points="436.416,246.77 442.203,228.068 435.44,226.803 436.518,217.882 432.047,215.379 
							445.664,200.049 464.641,204.098 455.382,227.225 454.762,244.216 						"/>
						<g>
							<polygon style="fill:#83503D;" points="442.203,228.068 440.248,234.385 449.98,229.584 							"/>
							<polygon style="fill:#83503D;" points="432.047,215.379 436.518,217.882 438.137,217.115 							"/>
						</g>
					</g>
					<g>
						<g>
							<path style="fill:#303C62;" d="M441.027,214.54c0.643,0.21,1.459-0.487,1.871-1.602c0.047-0.128-0.02-0.272-0.15-0.321
								c-0.154-0.037-0.271,0.02-0.32,0.148c-0.324,0.877-0.922,1.405-1.244,1.299c-0.002,0-0.006-0.001-0.008-0.002
								c-0.322-0.121-0.441-0.916-0.113-1.8c0.047-0.128-0.02-0.272-0.148-0.32c-0.127-0.031-0.274,0.018-0.322,0.148
								c-0.422,1.146-0.248,2.194,0.408,2.44C441.01,214.534,441.02,214.538,441.027,214.54z"/>
						</g>
						<path style="fill:#AD4034;" d="M444.275,219.664c-0.496,1.301-1.142,2.519-2.283,3.357c-1.207,0.893-2.809,0.801-4.193,0.52
							c-0.355-0.074-0.398,0.486-0.047,0.558c1.465,0.297,3.082,0.344,4.385-0.507c1.346-0.872,2.104-2.271,2.667-3.736
							C444.931,219.519,444.408,219.33,444.275,219.664z"/>
						<g>
							<path style="fill:#303C62;" d="M444.863,206.622c0.537,0.148,1.234,0.579,1.223,1.212c-0.004,0.361,0.553,0.409,0.559,0.049
								c0.014-0.893-0.783-1.567-1.588-1.785C444.711,206.002,444.514,206.528,444.863,206.622L444.863,206.622z"/>
						</g>
					</g>
					<g>
						<g>
							<path style="fill:#303C62;" d="M446.781,187.81c3.02,0.416,5.579,2.333,7.996,4.013c3.043-3.502,6.84-5.112,11.166-2.58
								c4.443,2.464,4.895,6.489,3.145,10.898c4.629,0.396,8.865,1.602,9.451,6.77c0.574,4.357-1.182,10.475-5.451,12.377
								c-1.934,0.946-4.17,0.619-6.189,0.237c0.728,3.29,0.754,7.417-3.781,7.046c-3.563-0.241-6.021-3.438-5.918-6.833
								c0.008-1.307,0.302-2.542,0.689-3.755c-3.166-1.857-3.252-5.299-1.625-7.968c-3.335-0.186-7.83-1.464-6.785-4.886
								c-4.394-0.541-12.395-1.131-12.373-7.158C437.139,191.154,442.123,187.109,446.781,187.81z"/>
						</g>
						<g>
							<path style="fill:#3E6CAA;" d="M443.615,190.5c0.168-0.526,1.01-0.334,0.842,0.198c-0.694,2.171-0.639,4.093,1.15,5.69
								c2.359,2.106,6.028,2.759,9.061,2.489c0.279-0.023,0.502,0.268,0.436,0.53c-1.003,4.098,3.142,6.643,6.784,6.298
								c0.557-0.053,0.584,0.81,0.033,0.862c-4.057,0.385-8.402-2.495-7.754-6.802c-3.286,0.175-6.512-0.742-9.154-2.75
								C442.898,195.408,442.873,192.817,443.615,190.5z"/>
							<path style="fill:#3E6CAA;" d="M465.24,200.867c-2.486,0.082-4.949-1.419-5.896-3.782c-0.958-2.415-0.183-4.763,1.104-6.894
								c0.285-0.475,1.047-0.064,0.758,0.414c-0.996,1.649-1.73,3.416-1.332,5.373c0.49,2.412,2.973,4.104,5.332,4.025
								C465.766,199.984,465.795,200.849,465.24,200.867z"/>
							<path style="fill:#3E6CAA;" d="M467.894,204.143c2.678,1.327,5.061,3.266,4.634,6.523c-0.397,3.002-3.109,4.798-5.898,4.595
								c0.949,2.607-0.139,6.342-2.584,7.63c-0.488,0.258-0.947-0.476-0.453-0.734c2.262-1.19,3.236-5.012,1.959-7.196
								c-0.189-0.325,0.092-0.727,0.467-0.648c3.121,0.668,5.693-1.606,5.732-4.766c0.029-2.31-2.492-3.762-4.27-4.642
								C466.977,204.656,467.393,203.9,467.894,204.143z"/>
							<path style="fill:#3E6CAA;" d="M459.281,213.737c3.096-0.033,3.666-2.633,2.922-5.148c-0.157-0.532,0.67-0.786,0.828-0.25
								c0.856,2.9,0.016,5.836-3.066,6.218c1.15,2.501,0.734,5.212-0.346,7.729c-0.215,0.512-0.971,0.095-0.755-0.414
								c1.038-2.426,1.444-5.093,0.067-7.476C458.773,214.122,458.945,213.741,459.281,213.737z"/>
						</g>
					</g>
					<path style="fill:#A96F49;" d="M463.566,223.312c-1.172,3.188-4.707,4.815-7.895,3.642c-3.182-1.174-4.813-4.705-3.639-7.89
						c1.174-3.187,4.708-4.817,7.891-3.643C463.108,216.595,464.738,220.127,463.566,223.312z"/>
					<path style="fill:#83503D;" d="M461.059,219.072c-1.856-0.979-3.707-1.243-5.496,0c-2.045,1.42-2.588,3.778-1.669,6.002
						c0.138,0.336,0.646,0.098,0.509-0.232c-0.065-0.156-0.119-0.314-0.169-0.469c1.171,0.054,2.185-0.693,2.409-1.881
						c0.236-1.238-0.762-1.837-1.801-1.908c0.408-0.557,0.959-1.042,1.633-1.436c1.422-0.822,3.064-0.248,4.391,0.449
						C461.184,219.767,461.375,219.238,461.059,219.072z M456.084,222.445c-0.132,0.969-1.098,1.457-1.984,1.362
						c-0.17-0.958-0.023-1.87,0.395-2.674C455.373,221.077,456.221,221.411,456.084,222.445z"/>
				</g>
				<g>
					<g>
						<rect x="444.635" y="355.548" style="fill:#303D60;" width="3.947" height="76.101"/>
						<rect x="442.042" y="355.548" style="fill:#40598F;" width="9.132" height="17.479"/>
						<path style="fill:#303D60;" d="M468.427,433.515c0-4.637-9.768-8.398-21.817-8.398c-12.052,0-21.819,3.761-21.819,8.398
							H468.427z"/>
					</g>
					<path style="fill:#303D60;" d="M396.618,317.962c0,26.31,22.381,47.638,49.99,47.638c27.609,0,49.99-21.328,49.99-47.638
						c0-26.31-22.381-59.088-49.99-59.088C418.999,258.874,396.618,291.652,396.618,317.962z"/>
					<path style="fill:#40598F;" d="M404.374,317.073c0,22.228,18.908,30.913,42.234,30.913c23.325,0,42.234-8.685,42.234-30.913
						c0-22.228-18.909-49.92-42.234-49.92C423.282,267.153,404.374,294.846,404.374,317.073z"/>
				</g>
				<path style="fill:#3A66A5;" d="M414.786,336.194c0,5.522,4.477,10,10,10h43.645c5.523,0,10-4.478,10-10v-9.591
					c0-5.523-4.477-10-10-10h-43.645c-5.523,0-10,4.477-10,10V336.194z"/>
				<path style="fill:#A1DDF5;" d="M481.935,331.4h-70.111c0,0-7.881-91.013,32.839-91.013
					C485.382,240.387,481.935,331.4,481.935,331.4z"/>
				<g>
					<rect x="426.372" y="408.052" style="fill:#A96F49;" width="13.297" height="24.384"/>
					<rect x="451.854" y="408.052" style="fill:#A96F49;" width="13.299" height="24.384"/>
					<path style="fill:#3D76B9;" d="M482.239,326.29c7.885,11.598-14.935,93.588-14.935,93.588s-10.35,4.649-18.983,2.76
						c0,0,3.258-73.66,4.609-87.517C454.28,321.263,474.106,314.328,482.239,326.29z"/>
					<path style="fill:#3D76B9;" d="M411.142,325.688c-8.08,11.462,13.348,93.827,13.348,93.827s10.27,4.825,18.932,3.082
						c0,0-2.008-73.705-3.123-87.584C439.183,321.135,419.478,313.865,411.142,325.688z"/>
					<g>
						<path style="fill:#2D437D;" d="M444.997,436.851c-0.285,2.461-2.398,4.436-11.967,4.243
							c-9.016-0.18-12.598-3.484-12.598-4.362c0-2.99,6.881-11.149,6.881-11.149s-5.162-7.268,4.272-7.206
							c5.297,0.034,9.537,2.957,6.416,8.095C438.001,426.471,445.259,434.608,444.997,436.851z"/>
						<g>
							<path style="fill:#CDE2FD;" d="M436.052,433.152c-1.898-0.565-5.076-1.725-6.844-0.38c-0.514,0.391-1.01-0.478-0.504-0.863
								c2.01-1.529,5.467-0.36,7.613,0.278C436.935,432.371,436.673,433.336,436.052,433.152L436.052,433.152z"/>
						</g>
						<g>
							<path style="fill:#CDE2FD;" d="M434.847,428.751c-1.566-1.387-4.07-0.539-5.639,0.406c-0.553,0.334-1.055-0.531-0.504-0.863
								c2.004-1.208,4.914-1.964,6.85-0.25C436.036,428.473,435.327,429.177,434.847,428.751L434.847,428.751z"/>
						</g>
					</g>
					<g>
						<path style="fill:#2D437D;" d="M445.64,436.711c0.285,2.461,2.398,4.436,11.965,4.243c9.018-0.18,12.6-3.484,12.6-4.362
							c0-2.99-6.881-11.149-6.881-11.149s5.162-7.268-4.272-7.206c-5.299,0.034-9.539,2.957-6.416,8.095
							C452.636,426.331,445.378,434.469,445.64,436.711z"/>
						<g>
							<path style="fill:#CDE2FD;" d="M454.583,433.013c1.9-0.565,5.078-1.725,6.844-0.38c0.514,0.391,1.012-0.479,0.506-0.863
								c-2.01-1.529-5.467-0.36-7.615,0.278C453.702,432.232,453.964,433.196,454.583,433.013L454.583,433.013z"/>
						</g>
						<g>
							<path style="fill:#CDE2FD;" d="M455.79,428.611c1.566-1.387,4.068-0.539,5.637,0.406c0.555,0.334,1.057-0.531,0.506-0.863
								c-2.004-1.208-4.914-1.964-6.85-0.25C454.599,428.333,455.31,429.037,455.79,428.611L455.79,428.611z"/>
						</g>
					</g>
				</g>
				<g>
					<path style="fill:#A1DDF5;" d="M425.479,249.957c-9.506,7.266-39.174,59.361-31.84,66.646
						c7.334,7.285,32.732,5.021,32.732,5.021L425.479,249.957z"/>
					<path style="fill:#97D0E1;" d="M411.21,301.544c-4.17-6.137,10.571-39.575,14.316-47.828l0.705,56.662
						C421.122,308.72,414.091,305.785,411.21,301.544z"/>
				</g>
				<g>
					<path style="fill:#A1DDF5;" d="M463.845,249.957c9.506,7.266,39.174,59.361,31.84,66.646
						c-7.334,7.285-32.732,5.021-32.732,5.021L463.845,249.957z"/>
					<path style="fill:#97D0E1;" d="M478.114,301.544c4.17-6.137-10.571-39.575-14.316-47.828l-0.705,56.662
						C468.202,308.72,475.233,305.785,478.114,301.544z"/>
				</g>
				<path style="fill:#A1DDF5;" d="M455.66,244.848c0,0,0.619-9.333-0.057-9.641c-0.672-0.304-15.529-1.889-16.371-1.152
					c-0.842,0.735-3.32,9.719-3.32,9.719S450.721,246.756,455.66,244.848z"/>
			</g>
		</g>
		<g>
			<g>
				<path style="fill:#EF7E82;" d="M599.052,294.394l-16.821-0.928c0,0-8.847-5.368-10.397-4.667
					c-1.551,0.702-14.339,12.085-13.369,12.695c0.97,0.606,11.543-6.918,11.543-6.918s5.613,8.271,11.942,4.193l17.734,3.38
					L599.052,294.394z"/>
				<path style="fill:#AA4035;" d="M655.667,247.766c-6.277-3.611-31.352,45.217-31.352,45.217h-33.461v9.648
					c0,0,27.44,13.264,48.086,5.124C638.94,307.755,677.672,260.428,655.667,247.766z"/>
				<path style="fill:#EF7E82;" d="M571.184,293.182c0,0-5.801,9.338-7.453,9.611c-1.652,0.273,0.992-3.78,1.988-5.256
					C566.715,296.061,570.933,291.807,571.184,293.182z"/>
				<path style="fill:#EF7E82;" d="M572.465,294.099c0,0-4.41,8.442-5.367,7.998c-0.954-0.443,1.88-7.554,3.442-8.597
					C572.102,292.455,572.465,294.099,572.465,294.099z"/>
			</g>
			<g>
				<g>
					<path style="fill:#EAA294;" d="M510.364,433.362c0,0,14.177-18.638,16.468-21.982c2.29-3.346,9.938-16.607,9.938-16.607
						l10.393,4.421l-10.156,15.412c0,0,1.434,6.211,1.554,9.916C538.561,424.522,517.413,434.078,510.364,433.362z"/>
					<path style="fill:#668DC8;" d="M526.832,404.07c0,0,8.913,7.617,17.825,6.279c0,0,36.988-43.671,41.889-69.073l-13.369-9.454
						L526.832,404.07z"/>
					<path style="fill:#4775C2;" d="M573.177,331.822l-8.688,13.541c2.254,7.678,6.24,15.041,11.173,21.464
						c5.227-9.047,9.444-18.087,10.884-25.551L573.177,331.822z"/>
					<path style="fill:#2D548B;" d="M513.342,429.44c0,0,12.983-0.527,24.836-8.638c0,0,2.055,1.448,1.457,5.51
						c0,0-27.355,11.465-35.481,11.47C501.984,437.782,513.342,429.44,513.342,429.44z"/>
				</g>
				<g>
					<path style="fill:#EAA294;" d="M614.783,397.639l16.069,14.839l-2.863,21.935c0,0,7.574,1.337,9.803-4.01
						c2.229-5.348,3.565-19.896,3.565-19.896l-16.407-18.632L614.783,397.639z"/>
					<path style="fill:#74A0DF;" d="M635.565,316.322l32.53,4.227c0,0,6.684,30.978-5.794,34.987
						c-12.477,4.013-69.963-9.802-69.963-9.802l38.774,48.57c0,0-2.679,8.756-13.373,10.841c0,0-49.464-47.71-49.464-67.151
						c0-19.444,41.89-20.913,66.398-15.945L635.565,316.322z"/>
					<path style="fill:#2D548B;" d="M628.657,429.293c0,0,5.118,3.196,7.513,0c2.458-3.283,2.514-13.724,3.823-20.877
						c0,0,4.42,0.933,5.535,4.803c0,0-2.801,21.823-6.253,22.53c-5.597,1.143-16.655-0.271-20.312-1.138
						C616.853,434.112,628.657,429.293,628.657,429.293z"/>
					<path style="fill:#668DC8;" d="M640.586,334.369c8.314,3.802,18.957,5.536,29.243,5.465c0.408-9.349-1.733-19.285-1.733-19.285
						l-32.53-4.227l-0.892,5.727c-3.201-0.65-6.703-1.184-10.365-1.588C627.724,326.663,634.457,331.449,640.586,334.369z"/>
				</g>
			</g>
			<g>
				<path style="fill:#CE4F3E;" d="M631.038,321.382c0,0,13.89,20.833,41.887,11.484c0,0,7.266-82.066-10.044-85.766
					C636.198,244.944,633.53,284.687,631.038,321.382z"/>
			</g>
			<path style="fill:#AA4035;" d="M659.2,312.225c6.936-12.595,11.094-33.396,9.816-47.268c-0.365-3.651-4.341-5.117-6.531-8.22
				c-1.277-2.008-1.825-1.277-2.737,0.73c-1.825,3.833-2.738,8.03-4.016,12.046c-2.008,5.476-4.563,10.951-8.031,15.697
				c-4.014,5.875-9.19,10.375-14.951,14.14c-0.704,7.227-1.213,14.688-1.712,22.031c0,0,2.023,3.025,6.07,6.254
				C646.155,325.551,654.199,321.413,659.2,312.225z"/>
			<g>
				<path style="fill:#EF7E82;" d="M575.636,298.952c0,0-6.54,8.836-8.209,8.975c-1.67,0.139,1.295-3.688,2.408-5.078
					C570.948,301.458,575.497,297.561,575.636,298.952z"/>
				<path style="fill:#EF7E82;" d="M576.838,299.97c0,0-5.081,8.056-5.998,7.536c-0.916-0.52,2.486-7.376,4.129-8.289
					C576.609,298.303,576.838,299.97,576.838,299.97z"/>
				<path style="fill:#EAA294;" d="M603.24,299.897l-16.839-0.48c0,0-8.986-5.129-10.519-4.39
					c-1.53,0.743-13.984,12.014-12.998,12.6c0.985,0.584,11.326-6.776,11.326-6.776s5.831,8.122,12.051,3.88l17.816,2.907
					L603.24,299.897z"/>
				<path style="fill:#CE4F3E;" d="M662.255,252.365c-6.277-3.61-31.352,45.217-31.352,45.217h-33.461v9.648
					c0,0,27.441,13.265,48.086,5.125C645.528,312.355,684.26,265.027,662.255,252.365z"/>
			</g>
			<path style="fill:#F17364;" d="M635.107,298.718c11.682-7.666,18.069-23.911,22.998-36.505c1.234-3.291,2.344-6.642,3.378-10.016
				c-7.316,0.091-30.58,45.385-30.58,45.385h-33.461v1.895C609.626,302.131,624.323,305.854,635.107,298.718z"/>
			<g>
				<g>
					<polygon style="fill:#EAA294;" points="647.559,254.967 647.862,236.959 641.562,237.578 640.223,229.425 635.631,228.363 
						643.715,211.32 661.514,210.02 659.286,232.827 663.107,247.993 					"/>
					<g>
						<polygon style="fill:#EF7E82;" points="647.862,236.959 647.76,243.04 655.121,236.301 						"/>
						<polygon style="fill:#EF7E82;" points="635.631,228.363 640.223,229.425 641.454,228.329 						"/>
					</g>
					<path style="opacity:0.5;fill:#EF7E82;" d="M646.489,226.835c-0.088,1.298,0.893,2.419,2.188,2.507
						c1.296,0.089,2.418-0.893,2.506-2.188c0.088-1.298-0.891-2.418-2.187-2.507C647.7,224.56,646.578,225.54,646.489,226.835z"/>
				</g>
				<g>
					<path style="fill:#EF7E82;" d="M647.534,229.002c-0.105,1.278-0.363,2.518-1.156,3.557c-0.838,1.096-2.274,1.426-3.572,1.531
						c-0.33,0.032-0.227,0.537,0.102,0.508c1.372-0.114,2.813-0.487,3.746-1.574c0.964-1.118,1.276-2.547,1.395-3.986
						C648.076,228.706,647.561,228.672,647.534,229.002z"/>
					<g>
						<path style="fill:#303C62;" d="M644.697,217.335c0.513-0.008,1.237,0.194,1.393,0.753c0.087,0.319,0.594,0.22,0.505-0.1
							c-0.217-0.793-1.092-1.181-1.862-1.166C644.403,216.825,644.364,217.341,644.697,217.335L644.697,217.335z"/>
					</g>
					<g>
						<path style="fill:#303C62;" d="M644.747,224.2c-0.021-0.559-0.067-1.412-0.758-1.534c-0.613-0.107-0.975,0.721-1.129,1.172
							c-0.136,0.394-0.752,0.193-0.616-0.2c0.297-0.852,0.908-1.768,1.933-1.588c1.011,0.177,1.185,1.334,1.216,2.179
							C645.407,224.645,644.763,224.613,644.747,224.2L644.747,224.2z"/>
					</g>
				</g>
				<g>
					<path style="fill:#303C62;" d="M664.34,205.574c0,0-1.818-16.068,7.648-17.246c9.465-1.181,13.806,8.681,10.801,16.678
						c-3.003,7.997-14.05,5.696-14.05,5.696L664.34,205.574z"/>
					<path style="fill:#303C62;" d="M658.959,232.477c0,0-3.341-10.35-3.834-16.844c0,0-13.656-0.197-16.495-5.67
						c-2.84-5.47,13.726-16.39,26.839-8.915C678.535,208.494,673.203,233.445,658.959,232.477z"/>
					<g>
						<path style="fill:#3E6CAA;" d="M643.201,208.084c2.604-2.77,5.163-4.792,8.823-5.898c3.892-1.181,8.157-0.962,12.107-0.277
							c0.527,0.091,0.477,0.93-0.058,0.836c-3.635-0.63-7.176-0.71-10.813-0.003c-3.983,0.778-6.815,3.108-9.506,5.975
							C643.381,209.11,642.835,208.475,643.201,208.084z"/>
						<path style="fill:#3E6CAA;" d="M649.732,211.053c4.739-0.471,10.036-3.297,13.695-6.291c0.418-0.345,0.971,0.288,0.552,0.63
							c-3.809,3.12-9.124,5.992-14.078,6.485C649.367,211.928,649.196,211.107,649.732,211.053z"/>
						<path style="fill:#3E6CAA;" d="M666.721,206.846c0.08-0.53,0.919-0.479,0.836,0.058c-0.715,4.794-4.406,9.818-8.31,12.616
							c-0.435,0.311-0.992-0.316-0.553-0.633C662.36,216.26,666.051,211.35,666.721,206.846z"/>
						<path style="fill:#3E6CAA;" d="M669.19,210.288c0.023-0.539,0.858-0.481,0.84,0.058c-0.272,7.298-1.983,14.336-8.032,18.968
							c-0.428,0.328-0.981-0.303-0.552-0.631C667.331,224.174,668.929,217.369,669.19,210.288z"/>
						<path style="fill:#3E6CAA;" d="M672.185,207.453c6.689-0.75,9.285-7.115,8.504-13.213c-0.067-0.533,0.754-0.701,0.822-0.165
							c0.837,6.531-2.009,13.401-9.159,14.199C671.818,208.335,671.646,207.514,672.185,207.453z"/>
						<path style="fill:#3E6CAA;" d="M670.411,203.894c-0.356,0.399-1.054-0.066-0.697-0.473c3.269-3.699,7.049-7.036,8.734-11.833
							c0.18-0.511,0.973-0.234,0.793,0.276C677.524,196.747,673.733,200.13,670.411,203.894z"/>
						<path style="fill:#3E6CAA;" d="M676.354,190.256c-5.136,1.089-8.607,5.519-9.1,10.649c-0.053,0.536-0.89,0.482-0.837-0.057
							c0.529-5.507,4.266-10.247,9.768-11.416C676.716,189.321,676.881,190.142,676.354,190.256z"/>
					</g>
				</g>
				<path style="fill:#EAA294;" d="M665.507,227.266c-0.216,3.114-2.917,5.464-6.033,5.248c-3.113-0.22-5.463-2.921-5.246-6.035
					c0.219-3.114,2.921-5.464,6.033-5.245C663.376,221.45,665.727,224.151,665.507,227.266z"/>
				<path style="fill:#EF7E82;" d="M662.203,224.166c-1.891-0.389-3.593-0.146-4.856,1.414c-1.436,1.779-1.313,4.001,0.07,5.73
					c0.208,0.26,0.596-0.08,0.388-0.339c-0.096-0.12-0.185-0.246-0.267-0.368c1.048-0.254,1.75-1.175,1.643-2.281
					c-0.111-1.152-1.144-1.424-2.08-1.224c0.215-0.594,0.579-1.167,1.073-1.686c1.043-1.09,2.643-1.007,3.993-0.733
					C662.494,224.747,662.525,224.232,662.203,224.166z M658.677,228.427c0.13,0.884-0.592,1.565-1.401,1.708
					c-0.399-0.802-0.502-1.643-0.338-2.458C657.696,227.396,658.536,227.477,658.677,228.427z"/>
			</g>
			<polygon style="fill:#F7E4DE;" points="645.816,259.623 646.969,249.622 662.431,243.04 663.882,247.865 			"/>
		</g>
		<g>
			<g>
				<g>
					<polygon style="fill:#A96F49;" points="114.757,256.57 114.453,238.564 120.754,239.184 122.093,231.028 126.685,229.967 
						118.601,212.926 100.803,211.624 103.03,234.43 99.209,249.596 					"/>
					<g>
						<polygon style="fill:#83503D;" points="114.453,238.564 114.556,244.645 107.195,237.903 						"/>
						<polygon style="fill:#83503D;" points="126.685,229.967 122.093,231.028 120.861,229.934 						"/>
					</g>
					<path style="opacity:0.5;fill:#EF7E82;" d="M115.826,228.441c0.089,1.295-0.893,2.417-2.187,2.506
						c-1.296,0.087-2.418-0.892-2.505-2.188c-0.089-1.296,0.89-2.419,2.186-2.507C114.616,226.165,115.738,227.145,115.826,228.441z
						"/>
				</g>
				<g>
					<path style="fill:#AD4034;" d="M114.781,230.608c0.105,1.277,0.364,2.518,1.156,3.553c0.838,1.097,2.274,1.43,3.572,1.535
						c0.331,0.028,0.227,0.533-0.102,0.506c-1.372-0.112-2.812-0.489-3.746-1.573c-0.964-1.12-1.276-2.547-1.395-3.986
						C114.239,230.312,114.755,230.277,114.781,230.608z"/>
					<g>
						<path style="fill:#303C62;" d="M117.619,218.941c-0.513-0.012-1.238,0.19-1.393,0.752c-0.087,0.32-0.593,0.22-0.505-0.103
							c0.217-0.79,1.092-1.181,1.862-1.165C117.913,218.431,117.951,218.943,117.619,218.941L117.619,218.941z"/>
					</g>
					<g>
						<path style="fill:#303C62;" d="M118.366,223.289c-0.036,0.557-0.105,1.408-0.799,1.513c-0.614,0.09-0.955-0.747-1.097-1.201
							c-0.126-0.397-0.747-0.215-0.622,0.183c0.274,0.858,0.861,1.79,1.89,1.639c1.015-0.149,1.219-1.302,1.273-2.146
							C119.038,222.859,118.393,222.877,118.366,223.289L118.366,223.289z"/>
					</g>
				</g>
			</g>
			<g>
				<path style="fill:#83503D;" d="M165.668,296.964l16.689-2.29c0,0,8.382-6.069,9.984-5.496c1.603,0.573,14,9.357,13.083,10.043
					c-0.917,0.687-10.793-4.434-10.793-4.434s-4.924,8.7-11.563,5.151l-17.401,4.808V296.964z"/>
				<path style="fill:#83503D;" d="M193.092,291.834c0,0,5.707,8.173,7.382,8.145c1.675-0.026-0.635-3.573-1.88-4.848
					C197.348,293.858,193.093,290.436,193.092,291.834z"/>
				<path style="fill:#83503D;" d="M192.565,292.166c0,0,2.909,8.172,3.934,7.93c1.025-0.243-0.607-6.792-1.927-8.129
					C193.252,290.63,192.565,292.166,192.565,292.166z"/>
				<path style="fill:#A4DEF4;" d="M106.649,249.371c6.277-3.612,31.351,45.217,31.351,45.217h33.462v9.647
					c0,0-27.441,13.265-48.086,5.125C123.376,309.359,84.644,262.03,106.649,249.371z"/>
			</g>
			<g>
				<path style="fill:#83503D;" d="M115.52,410.181c0,0,34.632-42.92,50.64-65.757c0,0-43.387,13.943-55.385,9.605
					c-11.998-4.338-18.333-11.517-13.645-29.374l24.897-4.209l3.241,3.721c0,0,52.033,4.879,60.675,6.837
					c17.702,23.075-58.296,80.163-58.296,80.163l2.195,16.816l3.181,3.969H121.07L115.52,410.181z"/>
				<path style="fill:#335C8E;" d="M129.841,427.983c0,0-5.118,3.197-7.512,0c-2.458-3.282-2.514-13.724-3.823-20.877
					c0,0-4.42,0.933-5.536,4.802c0,0,2.801,21.824,6.253,22.53c5.597,1.144,16.655-0.271,20.311-1.136
					C141.646,432.802,129.841,427.983,129.841,427.983z"/>
				<path style="fill:#A96F49;" d="M119.337,413.095c0,0,34.632-42.92,50.64-65.757c0,0-51.021,13.962-63.019,9.624
					c-11.998-4.338-17.425-16.951-12.738-34.808l32.53-4.228l2.335,9.154c0,0,53.466-6.575,61.98,4.523
					c17.702,23.075-59.602,82.478-59.602,82.478l2.195,16.816l3.181,3.968h-11.953L119.337,413.095z"/>
				<path style="fill:#3D6AAB;" d="M133.658,430.898c0,0-5.118,3.196-7.512,0c-2.459-3.283-2.514-13.724-3.823-20.878
					c0,0-4.421,0.933-5.536,4.803c0,0,2.8,21.824,6.253,22.53c5.597,1.143,16.655-0.272,20.311-1.137
					C145.463,435.717,133.658,430.898,133.658,430.898z"/>
				<path style="fill:#4A76B7;" d="M127.448,316.604l-35.016,4.074c0,0-7.302,35.431,7.454,40.126
					c14.756,4.695,61.925-8.325,61.925-8.325s16.862-20.003,20.704-27.823l-51.865-0.989L127.448,316.604z"/>
				<path style="fill:#3D6AAB;" d="M138.27,323.812l-7.62-0.146l-3.202-7.063l-35.016,4.074c0,0-2.169,10.558-1.746,20.91
					C100.78,341.629,125.623,339.987,138.27,323.812z"/>
			</g>
			<g>
				<path style="fill:#A4DEF4;" d="M131.278,322.987c0,0-13.89,20.833-41.887,11.484c0,0-7.265-82.069,10.044-85.769
					C126.118,246.551,128.786,286.292,131.278,322.987z"/>
				<path style="fill:#A4DEF4;" d="M98.092,249.85c0,0,2.194-8.671,2.933-8.575c0.739,0.096,13.763,2.712,14.026,3.371
					c0.262,0.658,0,12.508,0,12.508S102.725,253.173,98.092,249.85z"/>
				<g>
					<g>
						<path style="fill:#93CEE0;" d="M102.272,242.942c-0.248,2.015-1.249,3.836-1.486,5.858c-0.054,0.466,0.676,0.462,0.73,0
							c0.236-2.02,1.238-3.839,1.486-5.858C103.06,242.478,102.33,242.482,102.272,242.942L102.272,242.942z"/>
					</g>
					<g>
						<path style="fill:#93CEE0;" d="M105.092,243.381c-0.184,2.354-1.496,4.436-1.997,6.72c-0.1,0.46,0.603,0.655,0.704,0.194
							c0.518-2.355,1.834-4.481,2.023-6.914C105.859,242.911,105.128,242.914,105.092,243.381L105.092,243.381z"/>
					</g>
					<g>
						<path style="fill:#93CEE0;" d="M107.56,243.992c-0.093,2.525-1.323,4.798-1.821,7.247c-0.093,0.459,0.61,0.654,0.704,0.193
							c0.511-2.519,1.752-4.843,1.847-7.44C108.307,243.521,107.577,243.523,107.56,243.992L107.56,243.992z"/>
					</g>
					<g>
						<path style="fill:#93CEE0;" d="M109.912,244.42c-0.796,2.233-1.134,4.57-1.41,6.916c-0.056,0.466,0.676,0.462,0.73,0
							c0.268-2.283,0.61-4.551,1.384-6.722C110.774,244.169,110.068,243.98,109.912,244.42L109.912,244.42z"/>
					</g>
					<g>
						<path style="fill:#93CEE0;" d="M112.15,245.652c-0.281,2.362-0.748,4.696-0.787,7.081c-0.007,0.472,0.723,0.471,0.73,0
							c0.039-2.383,0.506-4.72,0.787-7.081C112.936,245.186,112.206,245.191,112.15,245.652L112.15,245.652z"/>
					</g>
				</g>
			</g>
			<path style="fill:#93CEE0;" d="M103.115,313.83c-6.936-12.595-11.094-33.399-9.816-47.271c0.365-3.65,4.34-5.113,6.531-8.217
				c1.277-2.008,1.825-1.277,2.738,0.73c1.825,3.833,2.738,8.031,4.016,12.046c2.008,5.477,4.563,10.952,8.031,15.697
				c4.014,5.875,9.19,10.375,14.951,14.14c0.705,7.227,1.213,14.688,1.712,22.031c0,0-2.023,3.026-6.07,6.254
				C116.16,327.157,108.116,323.019,103.115,313.83z"/>
			<g>
				<path style="fill:#83503D;" d="M186.642,298.246c0,0,6.47,8.705,8.139,8.844c1.669,0.139-1.878-3.627-2.991-5.018
					S186.781,296.854,186.642,298.246z"/>
				<path style="fill:#83503D;" d="M186.085,298.525c0,0,5.148,8.421,6.191,8.281c1.044-0.14-2.993-6.82-4.175-8.281
					C186.92,297.064,186.085,298.525,186.085,298.525z"/>
				<path style="fill:#A96F49;" d="M159.101,301.31l16.822-0.886c0,0,8.86-5.345,10.409-4.641
					c1.549,0.705,12.689,10.064,11.718,10.672c-0.971,0.608-9.906-4.891-9.906-4.891s-5.634,8.258-11.953,4.167l-17.742,3.335
					L159.101,301.31z"/>
				<path style="fill:#A4DEF4;" d="M100.061,253.971c6.277-3.61,31.351,45.218,31.351,45.218h33.461v9.647
					c0,0-27.441,13.265-48.086,5.125C116.788,313.961,78.056,266.632,100.061,253.971z"/>
			</g>
			<path style="fill:#CCF1FF;" d="M127.209,300.323c-11.682-7.666-18.07-23.91-22.998-36.505c-1.235-3.291-2.344-6.644-3.378-10.019
				c7.316,0.094,30.58,45.389,30.58,45.389h33.461v1.892C152.691,303.737,137.993,307.457,127.209,300.323z"/>
			<g>
				<g>
					<path style="fill:#303C62;" d="M105.104,217.523l16.145-1.705c5.986-6.286,0.898-16.542-10.833-14.307
						c0,0-12.6-7.379-22.998,3.081c-9.28,9.337-8.675,38.327-4.485,42.213c4.191,3.886,23.206,6.019,24.25,0.537
						C108.228,241.86,105.104,217.523,105.104,217.523z"/>
					<g>
						<path style="fill:#3E6CAA;" d="M107.955,204.094c1.755,3.784,1.06,7.585,0.65,11.567c-0.049,0.468,0.683,0.464,0.73,0
							c0.428-4.161,1.071-8.011-0.75-11.935C108.387,203.298,107.758,203.669,107.955,204.094z"/>
						<path style="fill:#3E6CAA;" d="M110.814,203.077c2.725,2.589,4.519,7.896,2.277,11.389c-0.255,0.396,0.376,0.762,0.63,0.368
							c2.427-3.783,0.6-9.43-2.391-12.273C110.99,202.237,110.472,202.752,110.814,203.077z"/>
						<path style="fill:#3E6CAA;" d="M119.699,206.02c-1.128-2.129-3.102-3.216-5.253-4.14c-0.428-0.183-0.8,0.445-0.368,0.63
							c1.828,0.786,3.566,1.665,4.716,3.359c1.504,2.213,0.625,5.412-0.059,7.749c-0.133,0.452,0.572,0.645,0.705,0.194
							C120.127,211.46,120.936,208.354,119.699,206.02z"/>
						<path style="fill:#3E6CAA;" d="M104.61,202.09c-2.454,5.925-2.674,12.992-2.999,19.313
							c-0.408,7.956-0.288,16.029,0.184,23.978c0.027,0.468,0.759,0.471,0.73,0c-0.418-7.037-0.396-14.086-0.279-21.133
							c0.118-7.118,0.315-15.317,3.069-21.964C105.494,201.85,104.788,201.661,104.61,202.09z"/>
						<path style="fill:#3E6CAA;" d="M101.573,201.858c-7.645,14.141-6.687,30.771-5.576,46.258c0.033,0.466,0.764,0.469,0.73,0
							c-1.101-15.36-2.107-31.862,5.476-45.891C102.427,201.811,101.796,201.443,101.573,201.858z"/>
						<path style="fill:#3E6CAA;" d="M99.344,201.909c0.291-0.362-0.223-0.884-0.516-0.516c-4.532,5.672-7.799,11.966-9.741,18.962
							c-2.409,8.67-1.707,17.592-0.951,26.438c0.04,0.465,0.77,0.468,0.73,0c-0.687-8.044-1.259-15.936,0.365-23.915
							C90.804,215.155,94.447,208.037,99.344,201.909z"/>
						<path style="fill:#3E6CAA;" d="M92.759,203.508c0.312-0.35-0.203-0.869-0.516-0.516c-9.536,10.71-10.882,25.868-8.733,39.503
							c0.073,0.463,0.777,0.265,0.705-0.194C82.108,228.942,83.412,214.007,92.759,203.508z"/>
					</g>
				</g>
				<path style="fill:#A96F49;" d="M96.809,228.871c0.217,3.114,2.917,5.462,6.033,5.245c3.114-0.219,5.463-2.918,5.246-6.033
					c-0.218-3.113-2.92-5.463-6.033-5.246C98.94,223.054,96.589,225.756,96.809,228.871z"/>
				<path style="fill:#83503D;" d="M100.148,226.283c1.351-0.273,2.95-0.356,3.993,0.732c0.495,0.52,0.858,1.093,1.074,1.688
					c-0.937-0.202-1.969,0.068-2.081,1.224c-0.107,1.106,0.595,2.026,1.643,2.28c-0.082,0.124-0.171,0.248-0.267,0.369
					c-0.208,0.26,0.18,0.599,0.388,0.336c1.383-1.727,1.507-3.949,0.07-5.727c-1.262-1.561-2.965-1.801-4.855-1.415
					C99.79,225.835,99.821,226.352,100.148,226.283z M105.379,229.279c0.164,0.818,0.062,1.659-0.338,2.461
					c-0.81-0.143-1.532-0.824-1.402-1.711C103.78,229.079,104.62,229.001,105.379,229.279z"/>
			</g>
		</g>
		<g>
			<g>
				<rect x="221.52" y="320.446" style="fill:#40598F;" width="9.1" height="118.634"/>
				<rect x="554.353" y="320.446" style="fill:#40598F;" width="9.099" height="118.634"/>
			</g>
			<rect x="147.341" y="314.782" style="fill:#303D60;" width="490.291" height="7.997"/>
		</g>
		<g>
			<path style="fill:#FFFFFF;" d="M612.36,312.343c0,1.609-1.305,2.917-2.917,2.917h-59.602c-1.609,0-2.917-1.308-2.917-2.917l0,0
				c0-1.61,1.308-2.916,2.917-2.916h59.602C611.056,309.427,612.36,310.733,612.36,312.343L612.36,312.343z"/>
			<path style="fill:#FFFFFF;" d="M524.218,255.15c1.469-0.654,3.194,0.006,3.849,1.478l24.263,54.439
				c0.654,1.472-0.006,3.196-1.478,3.851l0,0c-1.472,0.656-3.195-0.004-3.852-1.476l-24.261-54.44
				C522.083,257.53,522.746,255.805,524.218,255.15L524.218,255.15z"/>
			<path style="fill:#92ADCA;" d="M551.601,312.343c0,1.094-0.887,1.98-1.979,1.98c-1.094,0-1.98-0.887-1.98-1.98
				c0-1.093,0.887-1.979,1.98-1.979C550.714,310.363,551.601,311.25,551.601,312.343z"/>
		</g>
		<g>
			<path style="fill:#FFFFFF;" d="M162.601,312.343c0,1.609,1.305,2.917,2.917,2.917h59.601c1.61,0,2.917-1.308,2.917-2.917l0,0
				c0-1.61-1.308-2.916-2.917-2.916h-59.601C163.905,309.427,162.601,310.733,162.601,312.343L162.601,312.343z"/>
			<path style="fill:#FFFFFF;" d="M250.743,255.15c-1.469-0.654-3.194,0.006-3.849,1.478l-24.263,54.439
				c-0.654,1.472,0.006,3.196,1.478,3.851l0,0c1.472,0.656,3.195-0.004,3.852-1.476l24.261-54.44
				C252.878,257.53,252.215,255.805,250.743,255.15L250.743,255.15z"/>
			<path style="fill:#92ADCA;" d="M223.361,312.343c0,1.094,0.887,1.98,1.979,1.98c1.094,0,1.981-0.887,1.981-1.98
				c0-1.093-0.887-1.979-1.981-1.979C224.248,310.363,223.361,311.25,223.361,312.343z"/>
		</g>
		<g>
			<path style="fill:#FFFFFF;" d="M465.226,309.907c0,2.907-2.357,5.265-5.265,5.265h-62.936c-2.907,0-5.265-2.357-5.265-5.265
				v-41.39c0-2.907,2.357-5.265,5.265-5.265h62.936c2.907,0,5.265,2.357,5.265,5.265V309.907z"/>
			<path style="fill:#92ADCA;" d="M432.047,288.212c0,1.962-1.591,3.553-3.554,3.553s-3.554-1.591-3.554-3.553
				c0-1.963,1.591-3.555,3.554-3.555S432.047,286.249,432.047,288.212z"/>
		</g>
	</g>
</g>
</svg>
