<svg xmlns="http://www.w3.org/2000/svg" width="400" height="340"><linearGradient id="grad1" x1="0%" y1="0%" x2="100%" y2="0%"><stop offset="0%" style="stop-color:#8A2BE2;stop-opacity:1" /><stop offset="100%" style="stop-color:#9400D3;stop-opacity:1" /></linearGradient><path fill="url(#grad1)" d="M330.9412729541713,278.24224742100233C323.1486024287671,294.2883843028605,303.3537546176712,310.2930430490418,286.77820294587804,316.27682129114885C270.2026512740849,322.2605995332559,248.30645179824958,312.5689871096212,231.48796292341248,314.14491687364455C214.66947404857538,315.7208466376679,200.1975231848732,327.9444920587903,185.86726969685546,325.7323998752887C171.5370162088377,323.52030769178714,163.8188517199098,307.7386869531897,145.50644199530603,300.8723637726352C127.19403227070228,294.0060405920807,84.00785015261079,298.013188087401,75.99281134923288,284.5344607919618C67.97777254585498,271.05573349652263,100.09174882848002,242.7999589193644,97.4162091750386,220C94.74066952159718,197.2000410806356,50.428962656176,159.33804663993024,59.939573428584396,147.7347072757754C69.4501842009928,136.13136791162057,133.5309188948665,156.12866091401855,154.47987380948902,150.37996381507097C175.42882872411155,144.63126671612338,173.3271282790863,115.01446485354921,185.6333029163195,113.24252468208988C197.9394775535527,111.47058451063054,212.69718516207448,136.44946163534462,228.3169216328883,139.74832278631496C243.93665810370211,143.0471839372853,260.83527252911824,130.04762478212373,279.3517217412024,133.03569158791188C297.8681709532866,136.02375839370004,330.3851995125434,143.18267221902923,339.41561690539356,157.67672362104392C348.4460342982437,172.1707750230586,334.94661675684046,199.90574603334028,333.5342260983034,220C332.12183543976636,240.09425396665972,338.73394347957554,262.1961105391442,330.9412729541713,278.24224742100233" stroke="none" stroke-width="3"/></svg>