<svg xmlns="http://www.w3.org/2000/svg" width="400" height="340"><linearGradient id="grad1" x1="0%" y1="0%" x2="100%" y2="0%"><stop offset="0%" style="stop-color:#8A2BE2;stop-opacity:1" /><stop offset="100%" style="stop-color:#9400D3;stop-opacity:1" /></linearGradient><path fill="url(#grad1)" d="M305.47783452453837,262.5094707414662C298.34335587022656,270.75809323924426,265.1565554831189,260.20652412624435,254.5625583413131,269.49173498666835C243.9685611995073,278.77694584709235,250.81043207050877,312.488120288926,241.91385167370353,318.22073590401027C233.0172712768983,323.95335151909455,213.3120407304918,308.4623035303173,201.18307596048163,303.88742867717417C189.05411119047147,299.31255382403106,176.9323132224642,298.02367871469113,169.14006305364265,290.7714867851517C161.3478128848211,283.51929485561226,158.8179690064556,269.78923499382074,154.42957494755242,260.3742770999377C150.04118088864925,250.9593192060546,149.73142807612155,244.45068768207585,142.80969870022358,234.28173942185333C135.8879693243256,224.1127911616308,113.4695277719445,210.29134766762655,112.89919869216465,199.36058753860254C112.32886961238479,188.42982740957854,131.34347687446026,179.35481834381216,139.3877242215445,168.69717864770922C147.4319715686287,158.0395389516063,150.470676566388,137.08942771167244,161.16468277466998,135.41474936198492C171.85868898295197,133.7400710122974,191.66515491557283,156.08483810963878,203.55176147123646,158.64910854958413C215.4383680269001,161.21337898952947,222.56423333269123,150.39901576794458,232.4843221086517,150.80037200165702C242.40441088461216,151.20172823536947,251.2604028874661,156.45141162180113,263.07229412699917,161.05724595185876C274.8841853665322,165.6630802819164,297.63948018915266,168.61158564064604,303.3556695458501,178.4353779820029C309.07185890254755,188.25917032335977,297.01573610406905,205.9876512067561,297.36943026718376,220C297.72312443029847,234.0123487932439,312.6123131788502,254.26084824368814,305.47783452453837,262.5094707414662" stroke="none" stroke-width="3"/></svg>